<mxfile host="Electron" modified="2024-05-29T13:17:50.366Z" agent="Mozilla/5.0 (X11; Linux x86_64) AppleWebKit/537.36 (KHTML, like Gecko) draw.io/22.0.3 Chrome/118.0.5993.159 Electron/27.3.11 Safari/537.36" etag="HGhEyPE4rM3eXX1sCGLd" version="22.0.3" type="device">
  <diagram name="Page-1" id="tv0lQDyvoa_jioirpKrl">
    <mxGraphModel dx="1114" dy="844" grid="1" gridSize="10" guides="1" tooltips="1" connect="1" arrows="1" fold="1" page="1" pageScale="1" pageWidth="1600" pageHeight="900" math="0" shadow="0">
      <root>
        <mxCell id="0" />
        <mxCell id="1" parent="0" />
        <mxCell id="f2O-KmGTkjMS1FxQGlCd-1" value="&lt;font style=&quot;font-size: 9px;&quot;&gt;DT 2 &quot;pink dog&quot;&lt;/font&gt;" style="shape=process;whiteSpace=wrap;html=1;backgroundOutline=1;container=0;" vertex="1" parent="1">
          <mxGeometry x="378.07384615384603" width="100.0787119856887" height="40" as="geometry" />
        </mxCell>
        <mxCell id="f2O-KmGTkjMS1FxQGlCd-2" value="&lt;font style=&quot;font-size: 9px;&quot;&gt;DT 3 &quot;black cat&quot;&lt;/font&gt;" style="shape=process;whiteSpace=wrap;html=1;backgroundOutline=1;container=0;" vertex="1" parent="1">
          <mxGeometry x="478.15255813953473" width="100.0787119856887" height="40" as="geometry" />
        </mxCell>
        <mxCell id="f2O-KmGTkjMS1FxQGlCd-3" value="WM 3" style="shape=process;whiteSpace=wrap;html=1;backgroundOutline=1;container=0;" vertex="1" parent="1">
          <mxGeometry x="578.2360787119856" width="77.83899821109121" height="40" as="geometry" />
        </mxCell>
        <mxCell id="f2O-KmGTkjMS1FxQGlCd-4" value="" style="endArrow=none;dashed=1;html=1;rounded=0;" edge="1" parent="1">
          <mxGeometry width="50" height="50" relative="1" as="geometry">
            <mxPoint x="656.0750769230767" y="19.709999999999937" as="sourcePoint" />
            <mxPoint x="739.9199999999994" y="19.709999999999937" as="targetPoint" />
          </mxGeometry>
        </mxCell>
        <mxCell id="f2O-KmGTkjMS1FxQGlCd-5" value="&lt;font style=&quot;font-size: 9px;&quot;&gt;DT 1 &quot;black dog&quot;&lt;/font&gt;" style="shape=process;whiteSpace=wrap;html=1;backgroundOutline=1;container=0;" vertex="1" parent="1">
          <mxGeometry width="100.0787119856887" height="40" as="geometry" />
        </mxCell>
        <mxCell id="f2O-KmGTkjMS1FxQGlCd-6" value="&lt;font style=&quot;font-size: 9px;&quot;&gt;DT 2 &quot;orange cat&quot;&lt;/font&gt;" style="shape=process;whiteSpace=wrap;html=1;backgroundOutline=1;container=0;" vertex="1" parent="1">
          <mxGeometry x="100.0787119856887" width="100.0787119856887" height="40" as="geometry" />
        </mxCell>
        <mxCell id="f2O-KmGTkjMS1FxQGlCd-7" value="&lt;font style=&quot;font-size: 9px;&quot;&gt;DT 0 &quot;gray dog&quot;&lt;/font&gt;" style="shape=process;whiteSpace=wrap;html=1;backgroundOutline=1;container=0;" vertex="1" parent="1">
          <mxGeometry x="200.1574239713774" width="100.0787119856887" height="40" as="geometry" />
        </mxCell>
        <mxCell id="f2O-KmGTkjMS1FxQGlCd-8" value="&lt;font style=&quot;font-size: 9px;&quot;&gt;WM 1&lt;/font&gt;" style="shape=process;whiteSpace=wrap;html=1;backgroundOutline=1;container=0;" vertex="1" parent="1">
          <mxGeometry x="300.2348479427548" width="77.83899821109121" height="40" as="geometry" />
        </mxCell>
      </root>
    </mxGraphModel>
  </diagram>
</mxfile>
